<svg width="41" height="41" viewBox="0 0 41 41" fill="none" xmlns="http://www.w3.org/2000/svg">
<path d="M20.4319 40.8638C9.19435 40.8638 0 31.6694 0 20.4319C0 9.19435 9.19435 0 20.4319 0C31.6694 0 40.8638 9.19435 40.8638 20.4319C40.8638 24.5183 39.6506 28.4131 37.4159 31.7971C37.2243 32.1164 36.8412 32.1802 36.522 31.9887C36.2027 31.7971 36.1389 31.414 36.3304 31.0948C38.5013 27.9023 39.5868 24.2629 39.5868 20.4319C39.5868 9.89669 30.9671 1.27699 20.4319 1.27699C9.89669 1.27699 1.27699 9.89669 1.27699 20.4319C1.27699 30.9671 9.89669 39.5868 20.4319 39.5868C23.6882 39.5868 28.03 38.6929 30.6478 36.075C33.3934 33.3295 33.3934 28.86 30.6478 26.1145L29.4347 24.9014C28.86 24.3267 28.03 23.9436 27.1999 23.9436C26.3699 23.9436 25.5399 24.2629 24.9652 24.9014C23.2413 26.6253 20.368 26.6253 18.6441 24.9014L16.8563 23.1136C16.0263 22.2835 15.5155 21.1342 15.5155 19.9849C15.5155 18.8356 15.9624 17.6863 16.8563 16.8563C18.0694 15.6432 18.0694 13.6 16.8563 12.323L14.1108 9.57745C13.5361 9.0028 12.7061 8.6197 11.876 8.6197C11.046 8.6197 10.2159 8.93895 9.6413 9.57745C5.93802 13.2807 5.93802 19.4103 9.6413 23.1136L17.6864 31.0948C19.1549 32.5633 21.0704 33.3295 23.1136 33.3295C25.1568 33.3295 27.0722 32.5633 28.5408 31.0948C28.7962 30.8394 29.1793 30.8394 29.4347 31.0948C29.6901 31.3502 29.6901 31.7333 29.4347 31.9887C27.7746 33.6488 25.476 34.6065 23.1136 34.6065C20.7511 34.6065 18.4525 33.6488 16.7925 31.9887L8.68355 24.0713C4.46948 19.7934 4.46948 12.8976 8.68355 8.68355C9.5136 7.85351 10.6629 7.34271 11.876 7.34271C13.0892 7.34271 14.1746 7.78966 15.0047 8.68355L17.6864 11.3652C19.4103 13.0892 19.4103 15.9624 17.6864 17.6864C17.1117 18.261 16.7286 19.091 16.7286 19.9211C16.7286 20.7511 17.0479 21.5812 17.6864 22.1558L19.4741 23.9436C20.6873 25.1568 22.7305 25.1568 24.0075 23.9436C24.8375 23.1136 25.9868 22.6028 27.1999 22.6028C28.4131 22.6028 29.4985 23.0497 30.3286 23.9436L31.5417 25.1568C33.138 26.753 33.968 28.7962 33.968 31.0309C33.968 33.2657 33.0741 35.3089 31.5417 36.9051C28.6685 39.8422 23.9436 40.8638 20.4319 40.8638Z" fill="#2A3671"/>
</svg>
